# xmcd
#
# Track frame offsets:
# 150
# 15159
# 33000
# 45784
# 59712
# 77230
# 94088
# 108569
# 128297
# 149088
# 167778
# 191378
# 207479
# 227080
# 244822
# 258408
# 274738
#
# Disc length: 4053 seconds
#
# Revision: 0
# Processed by: cddbd v1.5.1PL0 Copyright (c) Steve Scherf et al.
# Submitted via: Axialis_AX_CDPlayer 2.6
#
DISCID=e20fd311
DTITLE=Rod MacDonald - A Tale Of Two Americas
DYEAR=1900
DGENRE=
TTITLE0=Ray and Ron
TTITLE1=Terror
TTITLE2=Missing
TTITLE3=The Governator
TTITLE4=Beloved Enemy
TTITLE5=Smoke
TTITLE6=Treat You Right
TTITLE7=I'm Your Dad
TTITLE8=The Lucky Ones
TTITLE9=Don't Let Your Dim Light Die
TTITLE10=Sacrifice
TTITLE11=Peace
TTITLE12=True Love
TTITLE13=A Tale Of Two Americas
TTITLE14=Love Is The Common Ground
TTITLE15=I Am Bob Dylan
TTITLE16=With God On Our Side
EXTD=
EXTT0=
EXTT1=
EXTT2=
EXTT3=
EXTT4=
EXTT5=
EXTT6=
EXTT7=
EXTT8=
EXTT9=
EXTT10=
EXTT11=
EXTT12=
EXTT13=
EXTT14=
EXTT15=
EXTT16=
PLAYORDER=
